# xmcd
#
# Track frame offsets:
#	150
#	18503
#	32822
#	47433
#	68216
#	94161
#	110847
#	126271
#	168248
#	201340
#	212889
#
# Disc length: 3473 seconds
#
# Revision: 1
# Processed by: cddbd v1.5.2PL0 Copyright (c) Steve Scherf et al.
# Submitted via: audiograbber 1.83.01
#
DISCID=9f0d8f0b
DTITLE=Rudy Rotta - Blue Inside
DYEAR=2009
DGENRE=Blues
TTITLE0=Lady
TTITLE1=I Been Up I Been Low
TTITLE2=Got A Hold On Me
TTITLE3=No One Cares
TTITLE4=Had A Friend
TTITLE5=Gimme Some
TTITLE6=Rock Me
TTITLE7=You're Gone (Instrumental Version) (Live)
TTITLE8=Bad Bad Feelin' (Live)
TTITLE9=She'd Hurt Too
TTITLE10=Lady (Reprise)
EXTD=
EXTT0=
EXTT1=
EXTT2=
EXTT3=
EXTT4=
EXTT5=
EXTT6=
EXTT7=
EXTT8=
EXTT9=
EXTT10=
PLAYORDER=
